# xmcd
#
# Track frame offsets: 
#        150
#        19587
#        43882
#        63005
#        82225
#        103199
#        117543
#        140336
#        158996
#        194661
#        213727
#        226433
#
# Disc length: 3201 seconds
#
# Revision: 1
# Processed by: cddbd v1.5.2PL0 Copyright (c) Steve Scherf et al.
# Submitted via: ExactAudioCopy v0.99pb4
#
DISCID=b30c7f0c
DTITLE=Big Mama and Joan Pau Cumellas - En El Nom De Tots
DYEAR=2004
DGENRE=Blues
TTITLE0=Close Your Eyes
TTITLE1=No Man's Land
TTITLE2=Blues Por Argentina
TTITLE3=Real Heroes
TTITLE4=Cara De Foc
TTITLE5=They're Red Hot [Robert Johnson] and Come On Down To My House, B
TTITLE5=aby [Blind Boy Fuller]
TTITLE6=En El Nom De Tots
TTITLE7=Balkan Devil
TTITLE8=God Bless The Child [Arthur Herzog Jr. and Billie Holliday]
TTITLE9=El Blues De L'inrevés (Blues Per A Infants)
TTITLE10=Born To Live The Blues [Sonny Terry and Brownie McGhee
TTITLE11=Come On Boys. Let's Do That Messin' Around [Blind Blake]
EXTD=Blues en català\n
EXTT0=
EXTT1=
EXTT2=
EXTT3=
EXTT4=
EXTT5=
EXTT6=
EXTT7=
EXTT8=
EXTT9=
EXTT10=
EXTT11=
PLAYORDER=
